<?xml version="1.0" encoding="UTF-8"?>
<svg width="14px" height="16px" viewBox="0 0 14 16" version="1.1" xmlns="http://www.w3.org/2000/svg" xmlns:xlink="http://www.w3.org/1999/xlink">
    <!-- Generator: Sketch 45.2 (43514) - http://www.bohemiancoding.com/sketch -->
    <title>hourglass</title>
    <desc>Created with Sketch.</desc>
    <defs></defs>
    <g id="Page-1" stroke="none" stroke-width="1" fill="none" fill-rule="evenodd">
        <g id="Artboard-2" transform="translate(-252.000000, -23.000000)" fill-rule="nonzero" fill="#FFFFFF">
            <g id="hourglass" transform="translate(252.000000, 23.000000)">
                <path d="M12.4637681,14.4 L11.0144928,14.4 L11.0144928,12.8 C11.0144928,10.7757333 9.81246377,8.94933333 7.90898551,8 C9.81246377,7.05066667 11.0144928,5.22426667 11.0144928,3.2 L11.0144928,1.6 L12.4637681,1.6 C12.9431884,1.6 13.3333333,1.24106667 13.3333333,0.8 C13.3333333,0.358933333 12.9431884,0 12.4637681,0 L0.869565217,0 C0.390144928,0 0,0.358933333 0,0.8 C0,1.24106667 0.390144928,1.6 0.869565217,1.6 L2.31884058,1.6 L2.31884058,3.2 C2.31884058,5.22426667 3.52086957,7.05066667 5.42434783,8 C3.52086957,8.94933333 2.31884058,10.7757333 2.31884058,12.8 L2.31884058,14.4 L0.869565217,14.4 C0.390144928,14.4 0,14.7589333 0,15.2 C0,15.6410667 0.390144928,16 0.869565217,16 L12.4637681,16 C12.9431884,16 13.3333333,15.6410667 13.3333333,15.2 C13.3333333,14.7589333 12.9431884,14.4 12.4637681,14.4 Z M2.89855072,3.2 L2.89855072,1.6 L10.4347826,1.6 L10.4347826,3.2 C10.4347826,5.18053333 9.16202899,6.95413333 7.18753623,7.73333333 L6.14550725,7.73333333 C4.17130435,6.95413333 2.89855072,5.18053333 2.89855072,3.2 Z M2.89855072,12.8 C2.89855072,10.8194667 4.17130435,9.04586667 6.1457971,8.26666667 L7.18782609,8.26666667 C9.16202899,9.04586667 10.4347826,10.8194667 10.4347826,12.8 L10.4347826,14.4 C10.4347826,14.2528 10.3049275,14.1333333 10.1449275,14.1333333 C9.98492754,14.1333333 9.85507246,14.2528 9.85507246,14.4 L9.27536232,14.4 C9.27536232,14.2528 9.14550725,14.1333333 8.98550725,14.1333333 C8.82550725,14.1333333 8.69565217,14.2528 8.69565217,14.4 L8.11594203,14.4 C8.11594203,14.2528 7.98608696,14.1333333 7.82608696,14.1333333 C7.66608696,14.1333333 7.53623188,14.2528 7.53623188,14.4 L6.95652174,14.4 C6.95652174,14.2528 6.82666667,14.1333333 6.66666667,14.1333333 C6.50666667,14.1333333 6.37681159,14.2528 6.37681159,14.4 L5.79710145,14.4 C5.79710145,14.2528 5.66724638,14.1333333 5.50724638,14.1333333 C5.34724638,14.1333333 5.2173913,14.2528 5.2173913,14.4 L4.63768116,14.4 C4.63768116,14.2528 4.50782609,14.1333333 4.34782609,14.1333333 C4.18782609,14.1333333 4.05797101,14.2528 4.05797101,14.4 L3.47826087,14.4 C3.47826087,14.2528 3.3484058,14.1333333 3.1884058,14.1333333 C3.0284058,14.1333333 2.89855072,14.2528 2.89855072,14.4 L2.89855072,12.8 Z" id="Shape"></path>
                <ellipse id="Oval" cx="3.76811594" cy="13.8666667" rx="1" ry="1"></ellipse>
                <ellipse id="Oval" cx="4.92753623" cy="13.8666667" rx="1" ry="1"></ellipse>
                <ellipse id="Oval" cx="6.08695652" cy="13.8666667" rx="1" ry="1"></ellipse>
                <ellipse id="Oval" cx="7.24637681" cy="13.8666667" rx="1" ry="1"></ellipse>
                <ellipse id="Oval" cx="8.4057971" cy="13.8666667" rx="1" ry="1"></ellipse>
                <ellipse id="Oval" cx="9.56521739" cy="13.8666667" rx="1" ry="1"></ellipse>
                <ellipse id="Oval" cx="4.34782609" cy="13.3333333" rx="1" ry="1"></ellipse>
                <ellipse id="Oval" cx="5.50724638" cy="13.3333333" rx="1" ry="1"></ellipse>
                <ellipse id="Oval" cx="6.66666667" cy="8.8" rx="1" ry="1"></ellipse>
                <ellipse id="Oval" cx="4.92753623" cy="5.86666667" rx="1" ry="1"></ellipse>
                <ellipse id="Oval" cx="6.08695652" cy="5.86666667" rx="1" ry="1"></ellipse>
                <ellipse id="Oval" cx="7.24637681" cy="5.86666667" rx="1" ry="1"></ellipse>
                <ellipse id="Oval" cx="8.4057971" cy="5.86666667" rx="1" ry="1"></ellipse>
                <ellipse id="Oval" cx="7.82608696" cy="5.33333333" rx="1" ry="1"></ellipse>
                <ellipse id="Oval" cx="8.4057971" cy="4.8" rx="1" ry="1"></ellipse>
                <ellipse id="Oval" cx="5.50724638" cy="5.33333333" rx="1" ry="1"></ellipse>
                <ellipse id="Oval" cx="6.66666667" cy="5.33333333" rx="1" ry="1"></ellipse>
                <ellipse id="Oval" cx="4.92753623" cy="4.8" rx="1" ry="1"></ellipse>
                <ellipse id="Oval" cx="5.50724638" cy="6.4" rx="1" ry="1"></ellipse>
                <ellipse id="Oval" cx="6.08695652" cy="6.93333333" rx="1" ry="1"></ellipse>
                <ellipse id="Oval" cx="7.24637681" cy="6.93333333" rx="1" ry="1"></ellipse>
                <ellipse id="Oval" cx="6.66666667" cy="6.4" rx="1" ry="1"></ellipse>
                <ellipse id="Oval" cx="7.82608696" cy="6.4" rx="1" ry="1"></ellipse>
                <ellipse id="Oval" cx="6.66666667" cy="9.6" rx="1" ry="1"></ellipse>
                <ellipse id="Oval" cx="6.66666667" cy="10.4" rx="1" ry="1"></ellipse>
                <ellipse id="Oval" cx="6.66666667" cy="11.2" rx="1" ry="1"></ellipse>
                <ellipse id="Oval" cx="6.66666667" cy="12" rx="1" ry="1"></ellipse>
                <ellipse id="Oval" cx="6.66666667" cy="12.8" rx="1" ry="1"></ellipse>
                <ellipse id="Oval" cx="7.82608696" cy="13.3333333" rx="1" ry="1"></ellipse>
                <ellipse id="Oval" cx="8.98550725" cy="13.3333333" rx="1" ry="1"></ellipse>
            </g>
        </g>
    </g>
</svg>