<?xml version="1.0" encoding="UTF-8"?>
<svg width="20px" height="16px" viewBox="0 0 20 16" version="1.1" xmlns="http://www.w3.org/2000/svg" xmlns:xlink="http://www.w3.org/1999/xlink">
    <!-- Generator: Sketch 45.2 (43514) - http://www.bohemiancoding.com/sketch -->
    <title>weight-tool</title>
    <desc>Created with Sketch.</desc>
    <defs></defs>
    <g id="Page-1" stroke="none" stroke-width="1" fill="none" fill-rule="evenodd">
        <g id="Artboard-2" transform="translate(-205.000000, -24.000000)" fill-rule="nonzero" fill="#FFFCFC">
            <g id="weight-tool" transform="translate(205.000000, 24.000000)">
                <path d="M19.6123365,14.6186667 L16.5283847,5.0864257 C16.3920313,4.66499598 15.9995815,4.37950201 15.5566578,4.37950201 L12.3021357,4.37950201 C12.565943,3.94374297 12.720706,3.43495582 12.720706,2.88941365 C12.720706,1.29628916 11.424449,0 9.83129237,0 C8.23816787,0 6.94187872,1.29625703 6.94187872,2.88941365 C6.94187872,3.43492369 7.09664177,3.94371084 7.36048113,4.37950201 L4.10602329,4.37950201 C3.6630996,4.37950201 3.2706498,4.66499598 3.13429639,5.0864257 L0.0503445792,14.6186667 C-0.16308514,15.2782972 0.328770282,15.9543454 1.02207149,15.9543454 L18.6405775,15.9543454 C19.3339108,15.9543775 19.8257341,15.2783293 19.6123365,14.6186667 Z M8.30367791,2.88941365 C8.30367791,2.04697189 8.98888273,1.36176707 9.8313245,1.36176707 C10.6737663,1.36176707 11.3589711,2.04697189 11.3589711,2.88941365 C11.3589711,3.61889157 10.8444329,4.22859438 10.15971,4.37950201 L9.50297109,4.37950201 C8.81821607,4.22862651 8.30367791,3.61889157 8.30367791,2.88941365 Z M6.468,8.54366663 L7.404,8.54366663 L7.404,11.9276666 L9.138,11.9276666 L9.138,12.7916666 L6.468,12.7916666 L6.468,8.54366663 Z M9.654,8.54366663 L11.238,8.54366663 C11.4220009,8.54366663 11.6069991,8.5566665 11.793,8.58266663 C11.9790009,8.60866676 12.1459993,8.66066624 12.294,8.73866663 C12.4420007,8.81666702 12.5619995,8.92566593 12.654,9.06566663 C12.7460005,9.20566733 12.792,9.39166547 12.792,9.62366663 C12.792,9.86366783 12.7250007,10.0626658 12.591,10.2206666 C12.4569993,10.3786674 12.2800011,10.4916663 12.06,10.5596666 C12.2000007,10.5916667 12.3269994,10.6306663 12.441,10.6886666 C12.5550006,10.7466669 12.6529996,10.8206662 12.735,10.9106666 C12.8170004,11.0006671 12.8799998,11.105666 12.924,11.2256666 C12.9680002,11.3456672 12.99,11.473666 12.99,11.6096666 C12.99,11.8336678 12.9420005,12.0206659 12.846,12.1706666 C12.7499995,12.3206674 12.6260008,12.4416662 12.474,12.5336666 C12.3219992,12.6256671 12.1510009,12.6916664 11.961,12.7316666 C11.770999,12.7716668 11.5820009,12.7916666 11.394,12.7916666 L9.654,12.7916666 L9.654,8.54366663 Z M10.59,10.2416666 L11.268,10.2416666 C11.3400004,10.2416666 11.4109996,10.2336667 11.481,10.2176666 C11.5510003,10.2016666 11.6139997,10.1756668 11.67,10.1396666 C11.7260003,10.1036665 11.7709998,10.0556669 11.805,9.99566663 C11.8390002,9.93566633 11.856,9.86366705 11.856,9.77966663 C11.856,9.69166619 11.8370002,9.61866692 11.799,9.56066663 C11.7609998,9.50266634 11.7120003,9.45766679 11.652,9.42566663 C11.5919997,9.39366647 11.5240004,9.3706667 11.448,9.35666663 C11.3719996,9.34266656 11.2980004,9.33566663 11.226,9.33566663 L10.59,9.33566663 L10.59,10.2416666 Z M10.59,11.9996666 L11.43,11.9996666 C11.5020004,11.9996666 11.5749996,11.9916667 11.649,11.9756666 C11.7230004,11.9596666 11.7899997,11.9316668 11.85,11.8916666 C11.9100003,11.8516664 11.9589998,11.799667 11.997,11.7356666 C12.0350002,11.6716663 12.054,11.5936671 12.054,11.5016666 C12.054,11.4016661 12.0290002,11.3206669 11.979,11.2586666 C11.9289997,11.1966663 11.8660004,11.1496668 11.79,11.1176666 C11.7139996,11.0856665 11.6320004,11.0636667 11.544,11.0516666 C11.4559996,11.0396666 11.3740004,11.0336666 11.298,11.0336666 L10.59,11.0336666 L10.59,11.9996666 Z" id="Shape"></path>
            </g>
        </g>
    </g>
</svg>