<?xml version="1.0" encoding="UTF-8"?>
<svg width="30px" height="30px" viewBox="0 0 30 30" version="1.1" xmlns="http://www.w3.org/2000/svg" xmlns:xlink="http://www.w3.org/1999/xlink">
    <!-- Generator: Sketch 45.2 (43514) - http://www.bohemiancoding.com/sketch -->
    <title>dog-paw</title>
    <desc>Created with Sketch.</desc>
    <defs></defs>
    <g id="Page-1" stroke="none" stroke-width="1" fill="none" fill-rule="evenodd">
        <g id="Artboard-2" transform="translate(-330.000000, -23.000000)" fill-rule="nonzero" fill="#E9E9E9">
            <g id="dog-paw" transform="translate(330.000000, 23.000000)">
                <path d="M24.216695,22.6312973 C25.4783916,24.6178244 26.0729983,25.6725142 26.0729983,26.7726595 C26.0729983,28.9453083 24.459329,29.9987696 22.2854517,29.9987696 C21.3272012,29.9987696 20.7086382,29.9975411 19.1453384,29.1842567 C19.1453384,29.1842567 18.1324185,28.2573336 15.761977,28.3525443 C13.369422,28.2579478 12.3558878,29.1959277 12.3558878,29.1959277 C10.7925881,30.0085978 10.1961386,29.9999981 9.23911658,29.9999981 C7.06523928,29.9999981 5.45034145,28.9477653 5.45034145,26.773888 C5.45034145,25.6737427 6.04679097,24.6202814 7.30787323,22.6325259 C7.30787323,22.6325259 9.69182852,18.6735998 11.7575955,16.811154 C13.250255,15.4671462 15.4265893,15.4720603 15.4265893,15.4720603 L16.0979789,15.4720603 L16.0979789,15.471446 C16.0979789,15.471446 18.3695241,15.4659177 19.7688155,16.811154 C21.7706992,18.7411688 24.216695,22.6319116 24.216695,22.6312973 Z M10.4510578,12.8245861 C12.7238314,12.8245861 14.5660066,9.95352013 14.5660066,6.41229305 C14.5660066,2.87106598 12.7238314,0 10.4510578,0 C8.17828411,0 6.33610892,2.87106598 6.33610892,6.41229305 C6.33610892,9.95352013 8.17828411,12.8245861 10.4510578,12.8245861 Z M6.50748834,19.0347866 C8.18258396,18.2614293 8.56465564,15.5193586 7.36008559,12.9099687 C6.15551555,10.3005788 3.82131557,8.81160493 2.14621995,9.58434797 C0.471124334,10.357091 0.0896669164,13.099776 1.2936227,15.7091659 C2.49819274,18.3185557 4.83239272,19.8069154 6.50748834,19.0347866 Z M20.0182064,12.8245861 C22.2909801,12.8245861 24.1337695,9.95352013 24.1337695,6.41229305 C24.1337695,2.87106598 22.2909801,0 20.0182064,0 C17.7454327,0 15.9032575,2.87106598 15.9032575,6.41229305 C15.9032575,9.95352013 17.7454327,12.8245861 20.0182064,12.8245861 Z M28.3236585,9.58373371 C26.6479486,8.8103764 24.3143629,10.2993503 23.1097928,12.9093544 C21.9052228,15.5193586 22.2872945,18.2614293 23.9630044,19.0347866 C25.6387142,19.8075296 27.9723,18.3185557 29.17687,15.7091659 C30.38144,13.099776 29.9993684,10.357091 28.3236585,9.58373371 Z" id="Shape"></path>
            </g>
        </g>
    </g>
</svg>