<?xml version="1.0" encoding="UTF-8"?>
<svg width="16px" height="16px" viewBox="0 0 16 16" version="1.1" xmlns="http://www.w3.org/2000/svg" xmlns:xlink="http://www.w3.org/1999/xlink">
    <!-- Generator: Sketch 45.2 (43514) - http://www.bohemiancoding.com/sketch -->
    <title>ruler</title>
    <desc>Created with Sketch.</desc>
    <defs></defs>
    <g id="Page-1" stroke="none" stroke-width="1" fill="none" fill-rule="evenodd">
        <g id="Artboard-2" transform="translate(-170.000000, -23.000000)" fill-rule="nonzero" fill="#FFFFFF">
            <g id="ruler" transform="translate(170.000000, 23.000000)">
                <path d="M15.9220897,3.30317349 L12.7281715,0.109224172 C12.6240936,0.00514619883 12.4558908,0.00514619883 12.3518129,0.109224172 L0.109224172,12.3518129 C0.00514619883,12.4558908 0.00514619883,12.6240936 0.109224172,12.7281715 L3.3031423,15.9220897 C3.35292008,15.972117 3.42078752,16.0000624 3.49130604,16.0000624 C3.56182456,16.0000624 3.6294425,15.972117 3.67946979,15.9220897 L15.9220273,3.67953216 C15.9720546,3.62975439 16,3.56188694 16,3.49136842 C16.0000624,3.42081871 15.972117,3.35320078 15.9220897,3.30317349 Z M3.49133723,15.3575673 L0.673777778,12.5400078 L12.5399766,0.673777778 L15.3575361,3.49133723 L3.49133723,15.3575673 Z" id="Shape"></path>
                <path d="M12.8072047,2.42641715 C12.3669708,2.42641715 12.0087329,2.78465497 12.0087329,3.22488889 C12.0087329,3.66512281 12.3669708,4.02336062 12.8072047,4.02336062 C13.2474386,4.02336062 13.6056764,3.66512281 13.6056764,3.22488889 C13.6056764,2.78468616 13.2474386,2.42641715 12.8072047,2.42641715 Z M12.8072047,3.49105653 C12.6602729,3.49105653 12.541037,3.37153996 12.541037,3.22488889 C12.541037,3.07823782 12.6602729,2.95872125 12.8072047,2.95872125 C12.9541365,2.95872125 13.0733723,3.07823782 13.0733723,3.22488889 C13.0733723,3.37157115 12.9541365,3.49105653 12.8072047,3.49105653 Z" id="Shape"></path>
                <rect id="Rectangle-path" transform="translate(10.544666, 3.091997) rotate(-45.000000) translate(-10.544666, -3.091997) " x="10.2785166" y="2.5273554" width="1" height="1.12928352"></rect>
                <rect id="Rectangle-path" transform="translate(9.879120, 4.023607) rotate(-45.000000) translate(-9.879120, -4.023607) " x="9.61297063" y="3.27078783" width="1" height="1.50563858"></rect>
                <rect id="Rectangle-path" transform="translate(8.947731, 4.688739) rotate(-45.000000) translate(-8.947731, -4.688739) " x="8.68158121" y="4.12409694" width="1" height="1.12928352"></rect>
                <rect id="Rectangle-path" transform="translate(8.282154, 5.620097) rotate(-45.000000) translate(-8.282154, -5.620097) " x="8.0160049" y="4.86727809" width="1" height="1.50563858"></rect>
                <rect id="Rectangle-path" transform="translate(7.350761, 6.285484) rotate(-45.000000) translate(-7.350761, -6.285484) " x="7.08461123" y="5.72084183" width="1" height="1.12928352"></rect>
                <rect id="Rectangle-path" transform="translate(6.685213, 7.216817) rotate(-45.000000) translate(-6.685213, -7.216817) " x="6.41906322" y="6.46399781" width="1" height="1.50563858"></rect>
                <rect id="Rectangle-path" transform="translate(5.753644, 7.881811) rotate(-45.008103) translate(-5.753644, -7.881811) " x="5.48749474" y="7.31729407" width="1" height="1.12903402"></rect>
                <rect id="Rectangle-path" transform="translate(5.088247, 8.814090) rotate(-45.000000) translate(-5.088247, -8.814090) " x="4.82209701" y="8.06127043" width="1" height="1.50563858"></rect>
                <rect id="Rectangle-path" transform="translate(4.156837, 9.479404) rotate(-45.000000) translate(-4.156837, -9.479404) " x="3.89068753" y="8.91476221" width="1" height="1.12928352"></rect>
                <rect id="Rectangle-path" transform="translate(3.491303, 10.411039) rotate(-45.000000) translate(-3.491303, -10.411039) " x="3.22515399" y="9.6582196" width="1" height="1.50563858"></rect>
                <rect id="Rectangle-path" transform="translate(2.560458, 11.076688) rotate(-45.000000) translate(-2.560458, -11.076688) " x="2.29430899" y="10.5120464" width="1" height="1.12928352"></rect>
                <rect id="Rectangle-path" transform="translate(1.894298, 12.008085) rotate(-45.000000) translate(-1.894298, -12.008085) " x="1.62814836" y="11.2552657" width="1" height="1.50563858"></rect>
            </g>
        </g>
    </g>
</svg>