<?xml version="1.0" encoding="UTF-8"?>
<svg width="31px" height="25px" viewBox="0 0 31 25" version="1.1" xmlns="http://www.w3.org/2000/svg" xmlns:xlink="http://www.w3.org/1999/xlink">
    <!-- Generator: Sketch 45.2 (43514) - http://www.bohemiancoding.com/sketch -->
    <title>twitter</title>
    <desc>Created with Sketch.</desc>
    <defs></defs>
    <g id="Page-1" stroke="none" stroke-width="1" fill="none" fill-rule="evenodd">
        <g id="Artboard-2" transform="translate(-84.000000, -64.000000)" fill-rule="nonzero" fill="#03A9F4">
            <g id="twitter" transform="translate(84.000000, 64.000000)">
                <path d="M30.7692308,2.95961538 C29.625,3.46153846 28.4057692,3.79423077 27.1346154,3.95576923 C28.4423077,3.175 29.4403846,1.94807692 29.9096154,0.469230769 C28.6903846,1.19615385 27.3442308,1.70961538 25.9096154,1.99615385 C24.7519231,0.763461538 23.1019231,0 21.3019231,0 C17.8096154,0 14.9980769,2.83461538 14.9980769,6.30961538 C14.9980769,6.80961538 15.0403846,7.29038462 15.1442308,7.74807692 C9.9,7.49230769 5.25961538,4.97884615 2.14230769,1.15 C1.59807692,2.09423077 1.27884615,3.175 1.27884615,4.33846154 C1.27884615,6.52307692 2.40384615,8.45961538 4.08076923,9.58076923 C3.06730769,9.56153846 2.07307692,9.26730769 1.23076923,8.80384615 C1.23076923,8.82307692 1.23076923,8.84807692 1.23076923,8.87307692 C1.23076923,11.9384615 3.41730769,14.4846154 6.28461538,15.0711538 C5.77115385,15.2115385 5.21153846,15.2788462 4.63076923,15.2788462 C4.22692308,15.2788462 3.81923077,15.2557692 3.43653846,15.1711538 C4.25384615,17.6692308 6.57307692,19.5057692 9.33076923,19.5653846 C7.18461538,21.2442308 4.45961538,22.2557692 1.50961538,22.2557692 C0.992307692,22.2557692 0.496153846,22.2326923 -5.68434189e-14,22.1692308 C2.79423077,23.9711538 6.10576923,25 9.67692308,25 C21.2846154,25 27.6307692,15.3846154 27.6307692,7.05 C27.6307692,6.77115385 27.6211538,6.50192308 27.6076923,6.23461538 C28.8596154,5.34615385 29.9115385,4.23653846 30.7692308,2.95961538 Z" id="Shape"></path>
            </g>
        </g>
    </g>
</svg>